<?xml version="1.0" encoding="UTF-8"?>
<svg version="1.1" xmlns="http://www.w3.org/2000/svg" width="50" height="50">
<path d="M0 0 C3.87682388 1.4705194 5.17232389 3.32933206 7 7 C8.06530702 13.37532574 7.92726254 19.42652274 4.5625 25.0625 C0.67393995 30.03985686 -3.92683586 32.27127949 -10.07421875 33.37109375 C-14.89784799 33.68382413 -18.15978422 32.22013241 -22.140625 29.77734375 C-24.52609101 28.78005859 -25.62268076 29.06675484 -28 30 C-29.35432675 31.31200404 -30.68733482 32.64631404 -32 34 C-34.25 35.25 -34.25 35.25 -36 36 C-36 36.99 -36 37.98 -36 39 C-39.51463147 37.82845618 -40.48096181 36.44296548 -42.203125 33.23046875 C-44.14357477 27.7991118 -43.67312875 22.09857788 -41.9375 16.6875 C-38.59295784 12.04829636 -34.33612279 8.19072461 -29 6 C-22.74997157 5.0858802 -18.07722413 5.87738174 -12.7890625 9.3203125 C-10.95377928 10.23920772 -10.95377928 10.23920772 -8.90625 9.25 C-6.84979855 7.99399194 -6.84979855 7.99399194 -4.875 5.875 C-4.25625 5.25625 -3.6375 4.6375 -3 4 C-2.34 4 -1.68 4 -1 4 C-0.505 4.99 -0.505 4.99 0 6 C0 4.02 0 2.04 0 0 Z M1 8 C0.34 8.66 -0.32 9.32 -1 10 C-0.01 10 0.98 10 2 10 C1.67 9.34 1.34 8.68 1 8 Z M-23 9 C-23 9.66 -23 10.32 -23 11 C-25.97 10.67 -28.94 10.34 -32 10 C-32.226875 10.78375 -32.45375 11.5675 -32.6875 12.375 C-34 15 -34 15 -36.625 16.3125 C-37.40875 16.539375 -38.1925 16.76625 -39 17 C-38.67 19.97 -38.34 22.94 -38 26 C-38.66 26 -39.32 26 -40 26 C-40 26.99 -40 27.98 -40 29 C-39.01 29 -38.02 29 -37 29 C-37 27.68 -37 26.36 -37 25 C-36.34 24.67 -35.68 24.34 -35 24 C-35.103125 23.278125 -35.20625 22.55625 -35.3125 21.8125 C-35 19 -35 19 -32.875 16.1875 C-29.56195324 13.66670355 -28.05780213 13.52816254 -24 14 C-24 13.34 -24 12.68 -24 12 C-22.68 12 -21.36 12 -20 12 C-20 11.01 -20 10.02 -20 9 C-20.99 9 -21.98 9 -23 9 Z M2 10 C2 11.32 2 12.64 2 14 C1.34 14 0.68 14 0 14 C0.103125 14.928125 0.20625 15.85625 0.3125 16.8125 C0.209375 17.864375 0.10625 18.91625 0 20 C-2.5 21.875 -2.5 21.875 -5 23 C-4.67 23.66 -4.34 24.32 -4 25 C-3.4225 24.71125 -2.845 24.4225 -2.25 24.125 C-0.16666667 23.08333333 1.91666667 22.04166667 4 21 C3.79375 20.113125 3.5875 19.22625 3.375 18.3125 C2.97449761 14.7747289 3.43316484 13.13367033 5 10 C4.01 10 3.02 10 2 10 Z M-20 12 C-19.67 12.99 -19.34 13.98 -19 15 C-17.02 15 -15.04 15 -13 15 C-12.67 14.34 -12.34 13.68 -12 13 C-14.64 12.67 -17.28 12.34 -20 12 Z M-19 23 C-19.99 23.66 -20.98 24.32 -22 25 C-20.02 25.66 -18.04 26.32 -16 27 C-16 26.01 -16 25.02 -16 24 C-16.99 23.67 -17.98 23.34 -19 23 Z M-12 25 C-12 25.66 -12 26.32 -12 27 C-13.32 27 -14.64 27 -16 27 C-16 27.99 -16 28.98 -16 30 C-15.01 30 -14.02 30 -13 30 C-13 29.34 -13 28.68 -13 28 C-7.25 27.875 -7.25 27.875 -5 29 C-4.34 28.34 -3.68 27.68 -3 27 C-3.33 26.34 -3.66 25.68 -4 25 C-6.64 25 -9.28 25 -12 25 Z M-37 29 C-36.67 29.99 -36.34 30.98 -36 32 C-35.67 31.01 -35.34 30.02 -35 29 C-35.66 29 -36.32 29 -37 29 Z " fill="#1A344C" transform="translate(43,6)"/>
<path d="M0 0 C0.89203125 0.01804687 1.7840625 0.03609375 2.703125 0.0546875 C3.71632813 0.08949219 3.71632813 0.08949219 4.75 0.125 C4.75 2.105 4.75 4.085 4.75 6.125 C4.42 5.135 4.09 4.145 3.75 3.125 C2.76 3.125 1.77 3.125 0.75 3.125 C0.75 3.785 0.75 4.445 0.75 5.125 C-2.22 5.125 -5.19 5.125 -8.25 5.125 C-8.58 6.445 -8.91 7.765 -9.25 9.125 C-9.91 9.785 -10.57 10.445 -11.25 11.125 C-12.57 11.125 -13.89 11.125 -15.25 11.125 C-14.899375 11.8675 -14.54875 12.61 -14.1875 13.375 C-13.20490707 16.2572726 -13.2173198 17.33676345 -14.25 20.125 C-14.91 20.125 -15.57 20.125 -16.25 20.125 C-16.25 21.115 -16.25 22.105 -16.25 23.125 C-15.26 23.125 -14.27 23.125 -13.25 23.125 C-10.82142857 29.41071429 -10.82142857 29.41071429 -12.25 33.125 C-15.76463147 31.95345618 -16.73096181 30.56796548 -18.453125 27.35546875 C-20.39357477 21.9241118 -19.92312875 16.22357788 -18.1875 10.8125 C-13.61597429 4.47135143 -8.03710701 -0.21150282 0 0 Z " fill="#526578" transform="translate(19.25,11.875)"/>
<path d="M0 0 C3.87682388 1.4705194 5.17232389 3.32933206 7 7 C8.10389962 13.60628302 7.88311945 19.51059105 4.25 25.25 C2.57559634 27.56710406 1.56820615 28.76502753 -1.078125 29.859375 C-1.71234375 29.90578125 -2.3465625 29.9521875 -3 30 C-3.66 29.34 -4.32 28.68 -5 28 C-3.5361389 23.60841671 -1.02168662 23.12052567 3 21 C2.773125 20.113125 2.54625 19.22625 2.3125 18.3125 C1.94548054 14.42209376 2.73118159 13.08559304 5 10 C1.37 9.34 -2.26 8.68 -6 8 C-5.01 6.68 -4.02 5.36 -3 4 C-2.34 4 -1.68 4 -1 4 C-0.67 4.66 -0.34 5.32 0 6 C0 4.02 0 2.04 0 0 Z " fill="#253D55" transform="translate(43,6)"/>
<path d="M0 0 C11.28830313 -0.53377265 11.28830313 -0.53377265 16 3 C16.99 3 17.98 3 19 3 C19 3.66 19 4.32 19 5 C18.01 5 17.02 5 16 5 C15.67 5.66 15.34 6.32 15 7 C10.25 6.125 10.25 6.125 8 5 C8 3.68 8 2.36 8 1 C5.36 1 2.72 1 0 1 C0 0.67 0 0.34 0 0 Z " fill="#3C4D62" transform="translate(16,13)"/>
<path d="M0 0 C0.89203125 0.01804687 1.7840625 0.03609375 2.703125 0.0546875 C3.71632813 0.08949219 3.71632813 0.08949219 4.75 0.125 C4.75 2.105 4.75 4.085 4.75 6.125 C4.42 5.135 4.09 4.145 3.75 3.125 C2.76 3.125 1.77 3.125 0.75 3.125 C0.75 3.785 0.75 4.445 0.75 5.125 C-3.54 5.125 -7.83 5.125 -12.25 5.125 C-8.14684398 1.02184398 -5.78175095 -0.15215134 0 0 Z " fill="#415468" transform="translate(19.25,11.875)"/>
<path d="M0 0 C0.99 0.33 1.98 0.66 3 1 C1.6062718 5.43458973 -0.60582235 7.87378374 -4 11 C-5.32 10.34 -6.64 9.68 -8 9 C-6.5361389 4.60841671 -4.02168662 4.12052567 0 2 C0 1.34 0 0.68 0 0 Z " fill="#304359" transform="translate(46,25)"/>
<path d="M0 0 C1.32 0.66 2.64 1.32 4 2 C4 2.99 4 3.98 4 5 C3.34 4.67 2.68 4.34 2 4 C1.67 5.65 1.34 7.3 1 9 C-1.31 8.67 -3.62 8.34 -6 8 C-4.625 6 -4.625 6 -3 4 C-2.34 4 -1.68 4 -1 4 C-0.67 4.66 -0.34 5.32 0 6 C0 4.02 0 2.04 0 0 Z " fill="#9098A1" transform="translate(43,6)"/>
<path d="M0 0 C0.66 0 1.32 0 2 0 C4.42857143 6.28571429 4.42857143 6.28571429 3 10 C2.01 9.67 1.02 9.34 0 9 C-1.36623674 6.26752652 -1.128426 4.01801098 -1 1 C-0.67 0.67 -0.34 0.34 0 0 Z " fill="#3F5064" transform="translate(4,35)"/>
<path d="M0 0 C0.66 0.33 1.32 0.66 2 1 C2 1.99 2 2.98 2 4 C-0.31 4.66 -2.62 5.32 -5 6 C-4.75 4.125 -4.75 4.125 -4 2 C-2.0625 0.6875 -2.0625 0.6875 0 0 Z " fill="#142942" transform="translate(9,16)"/>
<path d="M0 0 C2.97 0 5.94 0 9 0 C9 0.66 9 1.32 9 2 C10.32 2.66 11.64 3.32 13 4 C11.35 4.33 9.7 4.66 8 5 C8 3.68 8 2.36 8 1 C5.36 1 2.72 1 0 1 C0 0.67 0 0.34 0 0 Z " fill="#081E39" transform="translate(16,13)"/>
<path d="M0 0 C1.32 0.33 2.64 0.66 4 1 C4 2.65 4 4.3 4 6 C2.68 6 1.36 6 0 6 C0 4.02 0 2.04 0 0 Z " fill="#10243F" transform="translate(45,10)"/>
<path d="M0 0 C0.99 0 1.98 0 3 0 C3 1.65 3 3.3 3 5 C2.34 5 1.68 5 1 5 C0.67 6.32 0.34 7.64 0 9 C0 6.03 0 3.06 0 0 Z " fill="#031834" transform="translate(1,26)"/>
<path d="M0 0 C0.66 0.33 1.32 0.66 2 1 C3.67654729 0.72057545 5.34608154 0.39171753 7 0 C4.59563974 3.60654039 3.05320393 3.85452932 -1 5 C-0.67 3.35 -0.34 1.7 0 0 Z " fill="#415368" transform="translate(3,20)"/>
<path d="M0 0 C1.98 0.99 1.98 0.99 4 2 C4 2.99 4 3.98 4 5 C3.34 4.67 2.68 4.34 2 4 C2 4.66 2 5.32 2 6 C1.34 6 0.68 6 0 6 C0 4.02 0 2.04 0 0 Z " fill="#5A6674" transform="translate(43,6)"/>
</svg>
